<mxfile host="Electron" modified="2023-10-31T03:01:07.629Z" agent="Mozilla/5.0 (Windows NT 10.0; Win64; x64) AppleWebKit/537.36 (KHTML, like Gecko) draw.io/22.0.0 Chrome/114.0.5735.289 Electron/25.8.3 Safari/537.36" etag="eppd40xvX1j3-VBf7ZQo" version="22.0.0" type="device">
  <diagram id="tcJoGeuxI8kGtLN16Q2e" name="PÃ¡gina-1">
    <mxGraphModel dx="2887" dy="1384" grid="0" gridSize="10" guides="1" tooltips="1" connect="1" arrows="1" fold="1" page="0" pageScale="1" pageWidth="1169" pageHeight="827" math="0" shadow="0">
      <root>
        <mxCell id="0" />
        <mxCell id="1" parent="0" />
        <mxCell id="L4J4VgGYrzyUZLDxnEhv-2" style="edgeStyle=orthogonalEdgeStyle;rounded=0;orthogonalLoop=1;jettySize=auto;html=1;startArrow=ERone;startFill=0;endArrow=ERmany;endFill=0;" edge="1" parent="1" source="L4J4VgGYrzyUZLDxnEhv-3" target="L4J4VgGYrzyUZLDxnEhv-21">
          <mxGeometry relative="1" as="geometry" />
        </mxCell>
        <mxCell id="L4J4VgGYrzyUZLDxnEhv-3" value="Cliente" style="shape=table;startSize=30;container=1;collapsible=1;childLayout=tableLayout;fixedRows=1;rowLines=0;fontStyle=1;align=center;resizeLast=1;html=1;whiteSpace=wrap;fillColor=#dae8fc;strokeColor=#6c8ebf;" vertex="1" parent="1">
          <mxGeometry x="-859" y="298" width="232" height="120" as="geometry" />
        </mxCell>
        <mxCell id="L4J4VgGYrzyUZLDxnEhv-4" value="" style="shape=tableRow;horizontal=0;startSize=0;swimlaneHead=0;swimlaneBody=0;fillColor=none;collapsible=0;dropTarget=0;points=[[0,0.5],[1,0.5]];portConstraint=eastwest;top=0;left=0;right=0;bottom=0;html=1;" vertex="1" parent="L4J4VgGYrzyUZLDxnEhv-3">
          <mxGeometry y="30" width="232" height="30" as="geometry" />
        </mxCell>
        <mxCell id="L4J4VgGYrzyUZLDxnEhv-5" value="PK" style="shape=partialRectangle;connectable=0;fillColor=none;top=0;left=0;bottom=0;right=0;fontStyle=1;overflow=hidden;html=1;whiteSpace=wrap;" vertex="1" parent="L4J4VgGYrzyUZLDxnEhv-4">
          <mxGeometry width="60" height="30" as="geometry">
            <mxRectangle width="60" height="30" as="alternateBounds" />
          </mxGeometry>
        </mxCell>
        <mxCell id="L4J4VgGYrzyUZLDxnEhv-6" value="cpf -&amp;nbsp; string char 11" style="shape=partialRectangle;connectable=0;fillColor=none;top=0;left=0;bottom=0;right=0;align=left;spacingLeft=6;fontStyle=5;overflow=hidden;html=1;whiteSpace=wrap;" vertex="1" parent="L4J4VgGYrzyUZLDxnEhv-4">
          <mxGeometry x="60" width="172" height="30" as="geometry">
            <mxRectangle width="172" height="30" as="alternateBounds" />
          </mxGeometry>
        </mxCell>
        <mxCell id="L4J4VgGYrzyUZLDxnEhv-7" value="" style="shape=tableRow;horizontal=0;startSize=0;swimlaneHead=0;swimlaneBody=0;fillColor=none;collapsible=0;dropTarget=0;points=[[0,0.5],[1,0.5]];portConstraint=eastwest;top=0;left=0;right=0;bottom=0;html=1;" vertex="1" parent="L4J4VgGYrzyUZLDxnEhv-3">
          <mxGeometry y="60" width="232" height="30" as="geometry" />
        </mxCell>
        <mxCell id="L4J4VgGYrzyUZLDxnEhv-8" value="" style="shape=partialRectangle;connectable=0;fillColor=none;top=0;left=0;bottom=0;right=0;editable=1;overflow=hidden;html=1;whiteSpace=wrap;" vertex="1" parent="L4J4VgGYrzyUZLDxnEhv-7">
          <mxGeometry width="60" height="30" as="geometry">
            <mxRectangle width="60" height="30" as="alternateBounds" />
          </mxGeometry>
        </mxCell>
        <mxCell id="L4J4VgGYrzyUZLDxnEhv-9" value="nome - varchar 90" style="shape=partialRectangle;connectable=0;fillColor=none;top=0;left=0;bottom=0;right=0;align=left;spacingLeft=6;overflow=hidden;html=1;whiteSpace=wrap;" vertex="1" parent="L4J4VgGYrzyUZLDxnEhv-7">
          <mxGeometry x="60" width="172" height="30" as="geometry">
            <mxRectangle width="172" height="30" as="alternateBounds" />
          </mxGeometry>
        </mxCell>
        <mxCell id="L4J4VgGYrzyUZLDxnEhv-10" value="" style="shape=tableRow;horizontal=0;startSize=0;swimlaneHead=0;swimlaneBody=0;fillColor=none;collapsible=0;dropTarget=0;points=[[0,0.5],[1,0.5]];portConstraint=eastwest;top=0;left=0;right=0;bottom=0;html=1;" vertex="1" parent="L4J4VgGYrzyUZLDxnEhv-3">
          <mxGeometry y="90" width="232" height="30" as="geometry" />
        </mxCell>
        <mxCell id="L4J4VgGYrzyUZLDxnEhv-11" value="" style="shape=partialRectangle;connectable=0;fillColor=none;top=0;left=0;bottom=0;right=0;editable=1;overflow=hidden;html=1;whiteSpace=wrap;" vertex="1" parent="L4J4VgGYrzyUZLDxnEhv-10">
          <mxGeometry width="60" height="30" as="geometry">
            <mxRectangle width="60" height="30" as="alternateBounds" />
          </mxGeometry>
        </mxCell>
        <mxCell id="L4J4VgGYrzyUZLDxnEhv-12" value="email - varchar 90" style="shape=partialRectangle;connectable=0;fillColor=none;top=0;left=0;bottom=0;right=0;align=left;spacingLeft=6;overflow=hidden;html=1;whiteSpace=wrap;" vertex="1" parent="L4J4VgGYrzyUZLDxnEhv-10">
          <mxGeometry x="60" width="172" height="30" as="geometry">
            <mxRectangle width="172" height="30" as="alternateBounds" />
          </mxGeometry>
        </mxCell>
        <mxCell id="L4J4VgGYrzyUZLDxnEhv-13" style="edgeStyle=orthogonalEdgeStyle;rounded=0;orthogonalLoop=1;jettySize=auto;html=1;startArrow=ERone;startFill=0;endArrow=ERone;endFill=0;" edge="1" parent="1" source="L4J4VgGYrzyUZLDxnEhv-14" target="L4J4VgGYrzyUZLDxnEhv-126">
          <mxGeometry relative="1" as="geometry">
            <Array as="points">
              <mxPoint x="34" y="463" />
              <mxPoint x="34" y="504" />
              <mxPoint x="280" y="504" />
            </Array>
          </mxGeometry>
        </mxCell>
        <mxCell id="L4J4VgGYrzyUZLDxnEhv-14" value="Pedido" style="shape=table;startSize=30;container=1;collapsible=1;childLayout=tableLayout;fixedRows=1;rowLines=0;fontStyle=1;align=center;resizeLast=1;html=1;whiteSpace=wrap;fillColor=#dae8fc;strokeColor=#6c8ebf;" vertex="1" parent="1">
          <mxGeometry x="-299" y="253" width="278" height="334" as="geometry">
            <mxRectangle x="-299" y="253" width="75" height="30" as="alternateBounds" />
          </mxGeometry>
        </mxCell>
        <mxCell id="L4J4VgGYrzyUZLDxnEhv-15" value="" style="shape=tableRow;horizontal=0;startSize=0;swimlaneHead=0;swimlaneBody=0;fillColor=none;collapsible=0;dropTarget=0;points=[[0,0.5],[1,0.5]];portConstraint=eastwest;top=0;left=0;right=0;bottom=0;html=1;" vertex="1" parent="L4J4VgGYrzyUZLDxnEhv-14">
          <mxGeometry y="30" width="278" height="30" as="geometry" />
        </mxCell>
        <mxCell id="L4J4VgGYrzyUZLDxnEhv-16" value="PK" style="shape=partialRectangle;connectable=0;fillColor=none;top=0;left=0;bottom=0;right=0;fontStyle=1;overflow=hidden;html=1;whiteSpace=wrap;" vertex="1" parent="L4J4VgGYrzyUZLDxnEhv-15">
          <mxGeometry width="62.619237263997476" height="30" as="geometry">
            <mxRectangle width="62.619237263997476" height="30" as="alternateBounds" />
          </mxGeometry>
        </mxCell>
        <mxCell id="L4J4VgGYrzyUZLDxnEhv-17" value="id -&amp;nbsp; string char 36" style="shape=partialRectangle;connectable=0;fillColor=none;top=0;left=0;bottom=0;right=0;align=left;spacingLeft=6;fontStyle=5;overflow=hidden;html=1;whiteSpace=wrap;" vertex="1" parent="L4J4VgGYrzyUZLDxnEhv-15">
          <mxGeometry x="62.619237263997476" width="215.3807627360025" height="30" as="geometry">
            <mxRectangle width="215.3807627360025" height="30" as="alternateBounds" />
          </mxGeometry>
        </mxCell>
        <mxCell id="L4J4VgGYrzyUZLDxnEhv-18" value="" style="shape=tableRow;horizontal=0;startSize=0;swimlaneHead=0;swimlaneBody=0;fillColor=none;collapsible=0;dropTarget=0;points=[[0,0.5],[1,0.5]];portConstraint=eastwest;top=0;left=0;right=0;bottom=0;html=1;" vertex="1" parent="L4J4VgGYrzyUZLDxnEhv-14">
          <mxGeometry y="60" width="278" height="30" as="geometry" />
        </mxCell>
        <mxCell id="L4J4VgGYrzyUZLDxnEhv-19" value="" style="shape=partialRectangle;connectable=0;fillColor=none;top=0;left=0;bottom=0;right=0;editable=1;overflow=hidden;html=1;whiteSpace=wrap;" vertex="1" parent="L4J4VgGYrzyUZLDxnEhv-18">
          <mxGeometry width="62.619237263997476" height="30" as="geometry">
            <mxRectangle width="62.619237263997476" height="30" as="alternateBounds" />
          </mxGeometry>
        </mxCell>
        <mxCell id="L4J4VgGYrzyUZLDxnEhv-20" value="senha - char 3" style="shape=partialRectangle;connectable=0;fillColor=none;top=0;left=0;bottom=0;right=0;align=left;spacingLeft=6;overflow=hidden;html=1;whiteSpace=wrap;" vertex="1" parent="L4J4VgGYrzyUZLDxnEhv-18">
          <mxGeometry x="62.619237263997476" width="215.3807627360025" height="30" as="geometry">
            <mxRectangle width="215.3807627360025" height="30" as="alternateBounds" />
          </mxGeometry>
        </mxCell>
        <mxCell id="L4J4VgGYrzyUZLDxnEhv-21" value="" style="shape=tableRow;horizontal=0;startSize=0;swimlaneHead=0;swimlaneBody=0;fillColor=none;collapsible=0;dropTarget=0;points=[[0,0.5],[1,0.5]];portConstraint=eastwest;top=0;left=0;right=0;bottom=0;html=1;" vertex="1" parent="L4J4VgGYrzyUZLDxnEhv-14">
          <mxGeometry y="90" width="278" height="30" as="geometry" />
        </mxCell>
        <mxCell id="L4J4VgGYrzyUZLDxnEhv-22" value="FK" style="shape=partialRectangle;connectable=0;fillColor=none;top=0;left=0;bottom=0;right=0;editable=1;overflow=hidden;html=1;whiteSpace=wrap;" vertex="1" parent="L4J4VgGYrzyUZLDxnEhv-21">
          <mxGeometry width="62.619237263997476" height="30" as="geometry">
            <mxRectangle width="62.619237263997476" height="30" as="alternateBounds" />
          </mxGeometry>
        </mxCell>
        <mxCell id="L4J4VgGYrzyUZLDxnEhv-23" value="id_status - char 8" style="shape=partialRectangle;connectable=0;fillColor=none;top=0;left=0;bottom=0;right=0;align=left;spacingLeft=6;overflow=hidden;html=1;whiteSpace=wrap;" vertex="1" parent="L4J4VgGYrzyUZLDxnEhv-21">
          <mxGeometry x="62.619237263997476" width="215.3807627360025" height="30" as="geometry">
            <mxRectangle width="215.3807627360025" height="30" as="alternateBounds" />
          </mxGeometry>
        </mxCell>
        <mxCell id="L4J4VgGYrzyUZLDxnEhv-24" style="shape=tableRow;horizontal=0;startSize=0;swimlaneHead=0;swimlaneBody=0;fillColor=none;collapsible=0;dropTarget=0;points=[[0,0.5],[1,0.5]];portConstraint=eastwest;top=0;left=0;right=0;bottom=0;html=1;" vertex="1" parent="L4J4VgGYrzyUZLDxnEhv-14">
          <mxGeometry y="120" width="278" height="30" as="geometry" />
        </mxCell>
        <mxCell id="L4J4VgGYrzyUZLDxnEhv-25" value="FK" style="shape=partialRectangle;connectable=0;fillColor=none;top=0;left=0;bottom=0;right=0;editable=1;overflow=hidden;html=1;whiteSpace=wrap;" vertex="1" parent="L4J4VgGYrzyUZLDxnEhv-24">
          <mxGeometry width="62.619237263997476" height="30" as="geometry">
            <mxRectangle width="62.619237263997476" height="30" as="alternateBounds" />
          </mxGeometry>
        </mxCell>
        <mxCell id="L4J4VgGYrzyUZLDxnEhv-26" value="cpf - string char&amp;nbsp; 11" style="shape=partialRectangle;connectable=0;fillColor=none;top=0;left=0;bottom=0;right=0;align=left;spacingLeft=6;overflow=hidden;html=1;whiteSpace=wrap;" vertex="1" parent="L4J4VgGYrzyUZLDxnEhv-24">
          <mxGeometry x="62.619237263997476" width="215.3807627360025" height="30" as="geometry">
            <mxRectangle width="215.3807627360025" height="30" as="alternateBounds" />
          </mxGeometry>
        </mxCell>
        <mxCell id="L4J4VgGYrzyUZLDxnEhv-27" style="shape=tableRow;horizontal=0;startSize=0;swimlaneHead=0;swimlaneBody=0;fillColor=none;collapsible=0;dropTarget=0;points=[[0,0.5],[1,0.5]];portConstraint=eastwest;top=0;left=0;right=0;bottom=0;html=1;" vertex="1" parent="L4J4VgGYrzyUZLDxnEhv-14">
          <mxGeometry y="150" width="278" height="30" as="geometry" />
        </mxCell>
        <mxCell id="L4J4VgGYrzyUZLDxnEhv-28" style="shape=partialRectangle;connectable=0;fillColor=none;top=0;left=0;bottom=0;right=0;editable=1;overflow=hidden;html=1;whiteSpace=wrap;" vertex="1" parent="L4J4VgGYrzyUZLDxnEhv-27">
          <mxGeometry width="62.619237263997476" height="30" as="geometry">
            <mxRectangle width="62.619237263997476" height="30" as="alternateBounds" />
          </mxGeometry>
        </mxCell>
        <mxCell id="L4J4VgGYrzyUZLDxnEhv-29" value="detalhes_pedido - string varchar 255" style="shape=partialRectangle;connectable=0;fillColor=none;top=0;left=0;bottom=0;right=0;align=left;spacingLeft=6;overflow=hidden;html=1;whiteSpace=wrap;" vertex="1" parent="L4J4VgGYrzyUZLDxnEhv-27">
          <mxGeometry x="62.619237263997476" width="215.3807627360025" height="30" as="geometry">
            <mxRectangle width="215.3807627360025" height="30" as="alternateBounds" />
          </mxGeometry>
        </mxCell>
        <mxCell id="L4J4VgGYrzyUZLDxnEhv-30" style="shape=tableRow;horizontal=0;startSize=0;swimlaneHead=0;swimlaneBody=0;fillColor=none;collapsible=0;dropTarget=0;points=[[0,0.5],[1,0.5]];portConstraint=eastwest;top=0;left=0;right=0;bottom=0;html=1;" vertex="1" parent="L4J4VgGYrzyUZLDxnEhv-14">
          <mxGeometry y="180" width="278" height="34" as="geometry" />
        </mxCell>
        <mxCell id="L4J4VgGYrzyUZLDxnEhv-31" style="shape=partialRectangle;connectable=0;fillColor=none;top=0;left=0;bottom=0;right=0;editable=1;overflow=hidden;html=1;whiteSpace=wrap;" vertex="1" parent="L4J4VgGYrzyUZLDxnEhv-30">
          <mxGeometry width="62.619237263997476" height="34" as="geometry">
            <mxRectangle width="62.619237263997476" height="34" as="alternateBounds" />
          </mxGeometry>
        </mxCell>
        <mxCell id="L4J4VgGYrzyUZLDxnEhv-32" value="valor_total - dec(10,2)" style="shape=partialRectangle;connectable=0;fillColor=none;top=0;left=0;bottom=0;right=0;align=left;spacingLeft=6;overflow=hidden;html=1;whiteSpace=wrap;" vertex="1" parent="L4J4VgGYrzyUZLDxnEhv-30">
          <mxGeometry x="62.619237263997476" width="215.3807627360025" height="34" as="geometry">
            <mxRectangle width="215.3807627360025" height="34" as="alternateBounds" />
          </mxGeometry>
        </mxCell>
        <mxCell id="L4J4VgGYrzyUZLDxnEhv-33" style="shape=tableRow;horizontal=0;startSize=0;swimlaneHead=0;swimlaneBody=0;fillColor=none;collapsible=0;dropTarget=0;points=[[0,0.5],[1,0.5]];portConstraint=eastwest;top=0;left=0;right=0;bottom=0;html=1;" vertex="1" parent="L4J4VgGYrzyUZLDxnEhv-14">
          <mxGeometry y="214" width="278" height="30" as="geometry" />
        </mxCell>
        <mxCell id="L4J4VgGYrzyUZLDxnEhv-34" value="FK" style="shape=partialRectangle;connectable=0;fillColor=none;top=0;left=0;bottom=0;right=0;editable=1;overflow=hidden;html=1;whiteSpace=wrap;" vertex="1" parent="L4J4VgGYrzyUZLDxnEhv-33">
          <mxGeometry width="62.619237263997476" height="30" as="geometry">
            <mxRectangle width="62.619237263997476" height="30" as="alternateBounds" />
          </mxGeometry>
        </mxCell>
        <mxCell id="L4J4VgGYrzyUZLDxnEhv-35" value="id_pagamento - char 3" style="shape=partialRectangle;connectable=0;fillColor=none;top=0;left=0;bottom=0;right=0;align=left;spacingLeft=6;overflow=hidden;html=1;whiteSpace=wrap;" vertex="1" parent="L4J4VgGYrzyUZLDxnEhv-33">
          <mxGeometry x="62.619237263997476" width="215.3807627360025" height="30" as="geometry">
            <mxRectangle width="215.3807627360025" height="30" as="alternateBounds" />
          </mxGeometry>
        </mxCell>
        <mxCell id="L4J4VgGYrzyUZLDxnEhv-36" style="shape=tableRow;horizontal=0;startSize=0;swimlaneHead=0;swimlaneBody=0;fillColor=none;collapsible=0;dropTarget=0;points=[[0,0.5],[1,0.5]];portConstraint=eastwest;top=0;left=0;right=0;bottom=0;html=1;" vertex="1" parent="L4J4VgGYrzyUZLDxnEhv-14">
          <mxGeometry y="244" width="278" height="30" as="geometry" />
        </mxCell>
        <mxCell id="L4J4VgGYrzyUZLDxnEhv-37" style="shape=partialRectangle;connectable=0;fillColor=none;top=0;left=0;bottom=0;right=0;editable=1;overflow=hidden;html=1;whiteSpace=wrap;" vertex="1" parent="L4J4VgGYrzyUZLDxnEhv-36">
          <mxGeometry width="62.619237263997476" height="30" as="geometry">
            <mxRectangle width="62.619237263997476" height="30" as="alternateBounds" />
          </mxGeometry>
        </mxCell>
        <mxCell id="L4J4VgGYrzyUZLDxnEhv-38" value="data_hora_inicio" style="shape=partialRectangle;connectable=0;fillColor=none;top=0;left=0;bottom=0;right=0;align=left;spacingLeft=6;overflow=hidden;html=1;whiteSpace=wrap;" vertex="1" parent="L4J4VgGYrzyUZLDxnEhv-36">
          <mxGeometry x="62.619237263997476" width="215.3807627360025" height="30" as="geometry">
            <mxRectangle width="215.3807627360025" height="30" as="alternateBounds" />
          </mxGeometry>
        </mxCell>
        <mxCell id="L4J4VgGYrzyUZLDxnEhv-39" style="shape=tableRow;horizontal=0;startSize=0;swimlaneHead=0;swimlaneBody=0;fillColor=none;collapsible=0;dropTarget=0;points=[[0,0.5],[1,0.5]];portConstraint=eastwest;top=0;left=0;right=0;bottom=0;html=1;" vertex="1" parent="L4J4VgGYrzyUZLDxnEhv-14">
          <mxGeometry y="274" width="278" height="30" as="geometry" />
        </mxCell>
        <mxCell id="L4J4VgGYrzyUZLDxnEhv-40" style="shape=partialRectangle;connectable=0;fillColor=none;top=0;left=0;bottom=0;right=0;editable=1;overflow=hidden;html=1;whiteSpace=wrap;" vertex="1" parent="L4J4VgGYrzyUZLDxnEhv-39">
          <mxGeometry width="62.619237263997476" height="30" as="geometry">
            <mxRectangle width="62.619237263997476" height="30" as="alternateBounds" />
          </mxGeometry>
        </mxCell>
        <mxCell id="L4J4VgGYrzyUZLDxnEhv-41" value="data_hora_final&amp;nbsp;" style="shape=partialRectangle;connectable=0;fillColor=none;top=0;left=0;bottom=0;right=0;align=left;spacingLeft=6;overflow=hidden;html=1;whiteSpace=wrap;" vertex="1" parent="L4J4VgGYrzyUZLDxnEhv-39">
          <mxGeometry x="62.619237263997476" width="215.3807627360025" height="30" as="geometry">
            <mxRectangle width="215.3807627360025" height="30" as="alternateBounds" />
          </mxGeometry>
        </mxCell>
        <mxCell id="L4J4VgGYrzyUZLDxnEhv-42" style="shape=tableRow;horizontal=0;startSize=0;swimlaneHead=0;swimlaneBody=0;fillColor=none;collapsible=0;dropTarget=0;points=[[0,0.5],[1,0.5]];portConstraint=eastwest;top=0;left=0;right=0;bottom=0;html=1;" vertex="1" parent="L4J4VgGYrzyUZLDxnEhv-14">
          <mxGeometry y="304" width="278" height="30" as="geometry" />
        </mxCell>
        <mxCell id="L4J4VgGYrzyUZLDxnEhv-43" value="FK" style="shape=partialRectangle;connectable=0;fillColor=none;top=0;left=0;bottom=0;right=0;editable=1;overflow=hidden;html=1;whiteSpace=wrap;" vertex="1" parent="L4J4VgGYrzyUZLDxnEhv-42">
          <mxGeometry width="62.619237263997476" height="30" as="geometry">
            <mxRectangle width="62.619237263997476" height="30" as="alternateBounds" />
          </mxGeometry>
        </mxCell>
        <mxCell id="L4J4VgGYrzyUZLDxnEhv-44" value="id_satisfacao" style="shape=partialRectangle;connectable=0;fillColor=none;top=0;left=0;bottom=0;right=0;align=left;spacingLeft=6;overflow=hidden;html=1;whiteSpace=wrap;" vertex="1" parent="L4J4VgGYrzyUZLDxnEhv-42">
          <mxGeometry x="62.619237263997476" width="215.3807627360025" height="30" as="geometry">
            <mxRectangle width="215.3807627360025" height="30" as="alternateBounds" />
          </mxGeometry>
        </mxCell>
        <mxCell id="L4J4VgGYrzyUZLDxnEhv-45" value="Categoria" style="shape=table;startSize=30;container=1;collapsible=1;childLayout=tableLayout;fixedRows=1;rowLines=0;fontStyle=1;align=center;resizeLast=1;html=1;whiteSpace=wrap;fillColor=#dae8fc;strokeColor=#6c8ebf;" vertex="1" parent="1">
          <mxGeometry x="-299" y="-38" width="232" height="137.79166666666666" as="geometry" />
        </mxCell>
        <mxCell id="L4J4VgGYrzyUZLDxnEhv-46" value="" style="shape=tableRow;horizontal=0;startSize=0;swimlaneHead=0;swimlaneBody=0;fillColor=none;collapsible=0;dropTarget=0;points=[[0,0.5],[1,0.5]];portConstraint=eastwest;top=0;left=0;right=0;bottom=0;html=1;" vertex="1" parent="L4J4VgGYrzyUZLDxnEhv-45">
          <mxGeometry y="30" width="232" height="30" as="geometry" />
        </mxCell>
        <mxCell id="L4J4VgGYrzyUZLDxnEhv-47" value="PK" style="shape=partialRectangle;connectable=0;fillColor=none;top=0;left=0;bottom=0;right=0;fontStyle=1;overflow=hidden;html=1;whiteSpace=wrap;" vertex="1" parent="L4J4VgGYrzyUZLDxnEhv-46">
          <mxGeometry width="60" height="30" as="geometry">
            <mxRectangle width="60" height="30" as="alternateBounds" />
          </mxGeometry>
        </mxCell>
        <mxCell id="L4J4VgGYrzyUZLDxnEhv-48" value="id -&amp;nbsp; string char 5" style="shape=partialRectangle;connectable=0;fillColor=none;top=0;left=0;bottom=0;right=0;align=left;spacingLeft=6;fontStyle=5;overflow=hidden;html=1;whiteSpace=wrap;" vertex="1" parent="L4J4VgGYrzyUZLDxnEhv-46">
          <mxGeometry x="60" width="172" height="30" as="geometry">
            <mxRectangle width="172" height="30" as="alternateBounds" />
          </mxGeometry>
        </mxCell>
        <mxCell id="L4J4VgGYrzyUZLDxnEhv-49" value="" style="shape=tableRow;horizontal=0;startSize=0;swimlaneHead=0;swimlaneBody=0;fillColor=none;collapsible=0;dropTarget=0;points=[[0,0.5],[1,0.5]];portConstraint=eastwest;top=0;left=0;right=0;bottom=0;html=1;" vertex="1" parent="L4J4VgGYrzyUZLDxnEhv-45">
          <mxGeometry y="60" width="232" height="30" as="geometry" />
        </mxCell>
        <mxCell id="L4J4VgGYrzyUZLDxnEhv-50" value="" style="shape=partialRectangle;connectable=0;fillColor=none;top=0;left=0;bottom=0;right=0;editable=1;overflow=hidden;html=1;whiteSpace=wrap;" vertex="1" parent="L4J4VgGYrzyUZLDxnEhv-49">
          <mxGeometry width="60" height="30" as="geometry">
            <mxRectangle width="60" height="30" as="alternateBounds" />
          </mxGeometry>
        </mxCell>
        <mxCell id="L4J4VgGYrzyUZLDxnEhv-51" value="nome - varchar 80" style="shape=partialRectangle;connectable=0;fillColor=none;top=0;left=0;bottom=0;right=0;align=left;spacingLeft=6;overflow=hidden;html=1;whiteSpace=wrap;" vertex="1" parent="L4J4VgGYrzyUZLDxnEhv-49">
          <mxGeometry x="60" width="172" height="30" as="geometry">
            <mxRectangle width="172" height="30" as="alternateBounds" />
          </mxGeometry>
        </mxCell>
        <mxCell id="L4J4VgGYrzyUZLDxnEhv-52" value="" style="shape=tableRow;horizontal=0;startSize=0;swimlaneHead=0;swimlaneBody=0;fillColor=none;collapsible=0;dropTarget=0;points=[[0,0.5],[1,0.5]];portConstraint=eastwest;top=0;left=0;right=0;bottom=0;html=1;" vertex="1" parent="L4J4VgGYrzyUZLDxnEhv-45">
          <mxGeometry y="90" width="232" height="35" as="geometry" />
        </mxCell>
        <mxCell id="L4J4VgGYrzyUZLDxnEhv-53" value="" style="shape=partialRectangle;connectable=0;fillColor=none;top=0;left=0;bottom=0;right=0;editable=1;overflow=hidden;html=1;whiteSpace=wrap;" vertex="1" parent="L4J4VgGYrzyUZLDxnEhv-52">
          <mxGeometry width="60" height="35" as="geometry">
            <mxRectangle width="60" height="35" as="alternateBounds" />
          </mxGeometry>
        </mxCell>
        <mxCell id="L4J4VgGYrzyUZLDxnEhv-54" value="descricao - varchar 127" style="shape=partialRectangle;connectable=0;fillColor=none;top=0;left=0;bottom=0;right=0;align=left;spacingLeft=6;overflow=hidden;html=1;whiteSpace=wrap;" vertex="1" parent="L4J4VgGYrzyUZLDxnEhv-52">
          <mxGeometry x="60" width="172" height="35" as="geometry">
            <mxRectangle width="172" height="35" as="alternateBounds" />
          </mxGeometry>
        </mxCell>
        <mxCell id="L4J4VgGYrzyUZLDxnEhv-55" value="Produtos" style="shape=table;startSize=30;container=1;collapsible=1;childLayout=tableLayout;fixedRows=1;rowLines=0;fontStyle=1;align=center;resizeLast=1;html=1;whiteSpace=wrap;fillColor=#dae8fc;strokeColor=#6c8ebf;" vertex="1" parent="1">
          <mxGeometry x="58" y="-53" width="232" height="213" as="geometry" />
        </mxCell>
        <mxCell id="L4J4VgGYrzyUZLDxnEhv-56" value="" style="shape=tableRow;horizontal=0;startSize=0;swimlaneHead=0;swimlaneBody=0;fillColor=none;collapsible=0;dropTarget=0;points=[[0,0.5],[1,0.5]];portConstraint=eastwest;top=0;left=0;right=0;bottom=0;html=1;" vertex="1" parent="L4J4VgGYrzyUZLDxnEhv-55">
          <mxGeometry y="30" width="232" height="30" as="geometry" />
        </mxCell>
        <mxCell id="L4J4VgGYrzyUZLDxnEhv-57" value="PK" style="shape=partialRectangle;connectable=0;fillColor=none;top=0;left=0;bottom=0;right=0;fontStyle=1;overflow=hidden;html=1;whiteSpace=wrap;" vertex="1" parent="L4J4VgGYrzyUZLDxnEhv-56">
          <mxGeometry width="60" height="30" as="geometry">
            <mxRectangle width="60" height="30" as="alternateBounds" />
          </mxGeometry>
        </mxCell>
        <mxCell id="L4J4VgGYrzyUZLDxnEhv-58" value="id -&amp;nbsp; string char 36" style="shape=partialRectangle;connectable=0;fillColor=none;top=0;left=0;bottom=0;right=0;align=left;spacingLeft=6;fontStyle=5;overflow=hidden;html=1;whiteSpace=wrap;" vertex="1" parent="L4J4VgGYrzyUZLDxnEhv-56">
          <mxGeometry x="60" width="172" height="30" as="geometry">
            <mxRectangle width="172" height="30" as="alternateBounds" />
          </mxGeometry>
        </mxCell>
        <mxCell id="L4J4VgGYrzyUZLDxnEhv-59" value="" style="shape=tableRow;horizontal=0;startSize=0;swimlaneHead=0;swimlaneBody=0;fillColor=none;collapsible=0;dropTarget=0;points=[[0,0.5],[1,0.5]];portConstraint=eastwest;top=0;left=0;right=0;bottom=0;html=1;" vertex="1" parent="L4J4VgGYrzyUZLDxnEhv-55">
          <mxGeometry y="60" width="232" height="30" as="geometry" />
        </mxCell>
        <mxCell id="L4J4VgGYrzyUZLDxnEhv-60" value="" style="shape=partialRectangle;connectable=0;fillColor=none;top=0;left=0;bottom=0;right=0;editable=1;overflow=hidden;html=1;whiteSpace=wrap;" vertex="1" parent="L4J4VgGYrzyUZLDxnEhv-59">
          <mxGeometry width="60" height="30" as="geometry">
            <mxRectangle width="60" height="30" as="alternateBounds" />
          </mxGeometry>
        </mxCell>
        <mxCell id="L4J4VgGYrzyUZLDxnEhv-61" value="nome - char 80" style="shape=partialRectangle;connectable=0;fillColor=none;top=0;left=0;bottom=0;right=0;align=left;spacingLeft=6;overflow=hidden;html=1;whiteSpace=wrap;" vertex="1" parent="L4J4VgGYrzyUZLDxnEhv-59">
          <mxGeometry x="60" width="172" height="30" as="geometry">
            <mxRectangle width="172" height="30" as="alternateBounds" />
          </mxGeometry>
        </mxCell>
        <mxCell id="L4J4VgGYrzyUZLDxnEhv-62" value="" style="shape=tableRow;horizontal=0;startSize=0;swimlaneHead=0;swimlaneBody=0;fillColor=none;collapsible=0;dropTarget=0;points=[[0,0.5],[1,0.5]];portConstraint=eastwest;top=0;left=0;right=0;bottom=0;html=1;" vertex="1" parent="L4J4VgGYrzyUZLDxnEhv-55">
          <mxGeometry y="90" width="232" height="30" as="geometry" />
        </mxCell>
        <mxCell id="L4J4VgGYrzyUZLDxnEhv-63" value="" style="shape=partialRectangle;connectable=0;fillColor=none;top=0;left=0;bottom=0;right=0;editable=1;overflow=hidden;html=1;whiteSpace=wrap;" vertex="1" parent="L4J4VgGYrzyUZLDxnEhv-62">
          <mxGeometry width="60" height="30" as="geometry">
            <mxRectangle width="60" height="30" as="alternateBounds" />
          </mxGeometry>
        </mxCell>
        <mxCell id="L4J4VgGYrzyUZLDxnEhv-64" value="descricao - char 127" style="shape=partialRectangle;connectable=0;fillColor=none;top=0;left=0;bottom=0;right=0;align=left;spacingLeft=6;overflow=hidden;html=1;whiteSpace=wrap;" vertex="1" parent="L4J4VgGYrzyUZLDxnEhv-62">
          <mxGeometry x="60" width="172" height="30" as="geometry">
            <mxRectangle width="172" height="30" as="alternateBounds" />
          </mxGeometry>
        </mxCell>
        <mxCell id="L4J4VgGYrzyUZLDxnEhv-65" style="shape=tableRow;horizontal=0;startSize=0;swimlaneHead=0;swimlaneBody=0;fillColor=none;collapsible=0;dropTarget=0;points=[[0,0.5],[1,0.5]];portConstraint=eastwest;top=0;left=0;right=0;bottom=0;html=1;" vertex="1" parent="L4J4VgGYrzyUZLDxnEhv-55">
          <mxGeometry y="120" width="232" height="30" as="geometry" />
        </mxCell>
        <mxCell id="L4J4VgGYrzyUZLDxnEhv-66" value="FK" style="shape=partialRectangle;connectable=0;fillColor=none;top=0;left=0;bottom=0;right=0;editable=1;overflow=hidden;html=1;whiteSpace=wrap;" vertex="1" parent="L4J4VgGYrzyUZLDxnEhv-65">
          <mxGeometry width="60" height="30" as="geometry">
            <mxRectangle width="60" height="30" as="alternateBounds" />
          </mxGeometry>
        </mxCell>
        <mxCell id="L4J4VgGYrzyUZLDxnEhv-67" value="id_categoria - string char 36" style="shape=partialRectangle;connectable=0;fillColor=none;top=0;left=0;bottom=0;right=0;align=left;spacingLeft=6;overflow=hidden;html=1;whiteSpace=wrap;" vertex="1" parent="L4J4VgGYrzyUZLDxnEhv-65">
          <mxGeometry x="60" width="172" height="30" as="geometry">
            <mxRectangle width="172" height="30" as="alternateBounds" />
          </mxGeometry>
        </mxCell>
        <mxCell id="L4J4VgGYrzyUZLDxnEhv-68" style="shape=tableRow;horizontal=0;startSize=0;swimlaneHead=0;swimlaneBody=0;fillColor=none;collapsible=0;dropTarget=0;points=[[0,0.5],[1,0.5]];portConstraint=eastwest;top=0;left=0;right=0;bottom=0;html=1;" vertex="1" parent="L4J4VgGYrzyUZLDxnEhv-55">
          <mxGeometry y="150" width="232" height="30" as="geometry" />
        </mxCell>
        <mxCell id="L4J4VgGYrzyUZLDxnEhv-69" style="shape=partialRectangle;connectable=0;fillColor=none;top=0;left=0;bottom=0;right=0;editable=1;overflow=hidden;html=1;whiteSpace=wrap;" vertex="1" parent="L4J4VgGYrzyUZLDxnEhv-68">
          <mxGeometry width="60" height="30" as="geometry">
            <mxRectangle width="60" height="30" as="alternateBounds" />
          </mxGeometry>
        </mxCell>
        <mxCell id="L4J4VgGYrzyUZLDxnEhv-70" value="url_imagem - string varchar" style="shape=partialRectangle;connectable=0;fillColor=none;top=0;left=0;bottom=0;right=0;align=left;spacingLeft=6;overflow=hidden;html=1;whiteSpace=wrap;" vertex="1" parent="L4J4VgGYrzyUZLDxnEhv-68">
          <mxGeometry x="60" width="172" height="30" as="geometry">
            <mxRectangle width="172" height="30" as="alternateBounds" />
          </mxGeometry>
        </mxCell>
        <mxCell id="L4J4VgGYrzyUZLDxnEhv-71" style="shape=tableRow;horizontal=0;startSize=0;swimlaneHead=0;swimlaneBody=0;fillColor=none;collapsible=0;dropTarget=0;points=[[0,0.5],[1,0.5]];portConstraint=eastwest;top=0;left=0;right=0;bottom=0;html=1;" vertex="1" parent="L4J4VgGYrzyUZLDxnEhv-55">
          <mxGeometry y="180" width="232" height="30" as="geometry" />
        </mxCell>
        <mxCell id="L4J4VgGYrzyUZLDxnEhv-72" style="shape=partialRectangle;connectable=0;fillColor=none;top=0;left=0;bottom=0;right=0;editable=1;overflow=hidden;html=1;whiteSpace=wrap;" vertex="1" parent="L4J4VgGYrzyUZLDxnEhv-71">
          <mxGeometry width="60" height="30" as="geometry">
            <mxRectangle width="60" height="30" as="alternateBounds" />
          </mxGeometry>
        </mxCell>
        <mxCell id="L4J4VgGYrzyUZLDxnEhv-73" value="preco - dec (10, 2)" style="shape=partialRectangle;connectable=0;fillColor=none;top=0;left=0;bottom=0;right=0;align=left;spacingLeft=6;overflow=hidden;html=1;whiteSpace=wrap;" vertex="1" parent="L4J4VgGYrzyUZLDxnEhv-71">
          <mxGeometry x="60" width="172" height="30" as="geometry">
            <mxRectangle width="172" height="30" as="alternateBounds" />
          </mxGeometry>
        </mxCell>
        <mxCell id="L4J4VgGYrzyUZLDxnEhv-74" value="" style="shape=partialRectangle;connectable=0;fillColor=none;top=0;left=0;bottom=0;right=0;editable=1;overflow=hidden;html=1;whiteSpace=wrap;" vertex="1" parent="1">
          <mxGeometry x="-107" y="408" width="60" height="30" as="geometry">
            <mxRectangle width="60" height="30" as="alternateBounds" />
          </mxGeometry>
        </mxCell>
        <mxCell id="L4J4VgGYrzyUZLDxnEhv-75" value="itens_pedido" style="shape=table;startSize=30;container=1;collapsible=1;childLayout=tableLayout;fixedRows=1;rowLines=0;fontStyle=1;align=center;resizeLast=1;html=1;whiteSpace=wrap;fillColor=#dae8fc;strokeColor=#6c8ebf;" vertex="1" parent="1">
          <mxGeometry x="69" y="332" width="232" height="150" as="geometry" />
        </mxCell>
        <mxCell id="L4J4VgGYrzyUZLDxnEhv-76" value="" style="shape=tableRow;horizontal=0;startSize=0;swimlaneHead=0;swimlaneBody=0;fillColor=none;collapsible=0;dropTarget=0;points=[[0,0.5],[1,0.5]];portConstraint=eastwest;top=0;left=0;right=0;bottom=0;html=1;" vertex="1" parent="L4J4VgGYrzyUZLDxnEhv-75">
          <mxGeometry y="30" width="232" height="30" as="geometry" />
        </mxCell>
        <mxCell id="L4J4VgGYrzyUZLDxnEhv-77" value="PK" style="shape=partialRectangle;connectable=0;fillColor=none;top=0;left=0;bottom=0;right=0;fontStyle=1;overflow=hidden;html=1;whiteSpace=wrap;" vertex="1" parent="L4J4VgGYrzyUZLDxnEhv-76">
          <mxGeometry width="60" height="30" as="geometry">
            <mxRectangle width="60" height="30" as="alternateBounds" />
          </mxGeometry>
        </mxCell>
        <mxCell id="L4J4VgGYrzyUZLDxnEhv-78" value="id -&amp;nbsp; string char 36" style="shape=partialRectangle;connectable=0;fillColor=none;top=0;left=0;bottom=0;right=0;align=left;spacingLeft=6;fontStyle=5;overflow=hidden;html=1;whiteSpace=wrap;" vertex="1" parent="L4J4VgGYrzyUZLDxnEhv-76">
          <mxGeometry x="60" width="172" height="30" as="geometry">
            <mxRectangle width="172" height="30" as="alternateBounds" />
          </mxGeometry>
        </mxCell>
        <mxCell id="L4J4VgGYrzyUZLDxnEhv-79" value="" style="shape=tableRow;horizontal=0;startSize=0;swimlaneHead=0;swimlaneBody=0;fillColor=none;collapsible=0;dropTarget=0;points=[[0,0.5],[1,0.5]];portConstraint=eastwest;top=0;left=0;right=0;bottom=0;html=1;" vertex="1" parent="L4J4VgGYrzyUZLDxnEhv-75">
          <mxGeometry y="60" width="232" height="30" as="geometry" />
        </mxCell>
        <mxCell id="L4J4VgGYrzyUZLDxnEhv-80" value="FK" style="shape=partialRectangle;connectable=0;fillColor=none;top=0;left=0;bottom=0;right=0;editable=1;overflow=hidden;html=1;whiteSpace=wrap;" vertex="1" parent="L4J4VgGYrzyUZLDxnEhv-79">
          <mxGeometry width="60" height="30" as="geometry">
            <mxRectangle width="60" height="30" as="alternateBounds" />
          </mxGeometry>
        </mxCell>
        <mxCell id="L4J4VgGYrzyUZLDxnEhv-81" value="id_produto" style="shape=partialRectangle;connectable=0;fillColor=none;top=0;left=0;bottom=0;right=0;align=left;spacingLeft=6;overflow=hidden;html=1;whiteSpace=wrap;" vertex="1" parent="L4J4VgGYrzyUZLDxnEhv-79">
          <mxGeometry x="60" width="172" height="30" as="geometry">
            <mxRectangle width="172" height="30" as="alternateBounds" />
          </mxGeometry>
        </mxCell>
        <mxCell id="L4J4VgGYrzyUZLDxnEhv-82" value="" style="shape=tableRow;horizontal=0;startSize=0;swimlaneHead=0;swimlaneBody=0;fillColor=none;collapsible=0;dropTarget=0;points=[[0,0.5],[1,0.5]];portConstraint=eastwest;top=0;left=0;right=0;bottom=0;html=1;" vertex="1" parent="L4J4VgGYrzyUZLDxnEhv-75">
          <mxGeometry y="90" width="232" height="30" as="geometry" />
        </mxCell>
        <mxCell id="L4J4VgGYrzyUZLDxnEhv-83" value="FK" style="shape=partialRectangle;connectable=0;fillColor=none;top=0;left=0;bottom=0;right=0;editable=1;overflow=hidden;html=1;whiteSpace=wrap;" vertex="1" parent="L4J4VgGYrzyUZLDxnEhv-82">
          <mxGeometry width="60" height="30" as="geometry">
            <mxRectangle width="60" height="30" as="alternateBounds" />
          </mxGeometry>
        </mxCell>
        <mxCell id="L4J4VgGYrzyUZLDxnEhv-84" value="id_pedido" style="shape=partialRectangle;connectable=0;fillColor=none;top=0;left=0;bottom=0;right=0;align=left;spacingLeft=6;overflow=hidden;html=1;whiteSpace=wrap;" vertex="1" parent="L4J4VgGYrzyUZLDxnEhv-82">
          <mxGeometry x="60" width="172" height="30" as="geometry">
            <mxRectangle width="172" height="30" as="alternateBounds" />
          </mxGeometry>
        </mxCell>
        <mxCell id="L4J4VgGYrzyUZLDxnEhv-85" style="shape=tableRow;horizontal=0;startSize=0;swimlaneHead=0;swimlaneBody=0;fillColor=none;collapsible=0;dropTarget=0;points=[[0,0.5],[1,0.5]];portConstraint=eastwest;top=0;left=0;right=0;bottom=0;html=1;" vertex="1" parent="L4J4VgGYrzyUZLDxnEhv-75">
          <mxGeometry y="120" width="232" height="30" as="geometry" />
        </mxCell>
        <mxCell id="L4J4VgGYrzyUZLDxnEhv-86" style="shape=partialRectangle;connectable=0;fillColor=none;top=0;left=0;bottom=0;right=0;editable=1;overflow=hidden;html=1;whiteSpace=wrap;" vertex="1" parent="L4J4VgGYrzyUZLDxnEhv-85">
          <mxGeometry width="60" height="30" as="geometry">
            <mxRectangle width="60" height="30" as="alternateBounds" />
          </mxGeometry>
        </mxCell>
        <mxCell id="L4J4VgGYrzyUZLDxnEhv-87" style="shape=partialRectangle;connectable=0;fillColor=none;top=0;left=0;bottom=0;right=0;align=left;spacingLeft=6;overflow=hidden;html=1;whiteSpace=wrap;" vertex="1" parent="L4J4VgGYrzyUZLDxnEhv-85">
          <mxGeometry x="60" width="172" height="30" as="geometry">
            <mxRectangle width="172" height="30" as="alternateBounds" />
          </mxGeometry>
        </mxCell>
        <mxCell id="L4J4VgGYrzyUZLDxnEhv-88" value="Status" style="shape=table;startSize=30;container=1;collapsible=1;childLayout=tableLayout;fixedRows=1;rowLines=0;fontStyle=1;align=center;resizeLast=1;html=1;whiteSpace=wrap;fillColor=#dae8fc;strokeColor=#6c8ebf;" vertex="1" parent="1">
          <mxGeometry x="-286" y="654" width="232" height="150" as="geometry" />
        </mxCell>
        <mxCell id="L4J4VgGYrzyUZLDxnEhv-89" value="" style="shape=tableRow;horizontal=0;startSize=0;swimlaneHead=0;swimlaneBody=0;fillColor=none;collapsible=0;dropTarget=0;points=[[0,0.5],[1,0.5]];portConstraint=eastwest;top=0;left=0;right=0;bottom=0;html=1;" vertex="1" parent="L4J4VgGYrzyUZLDxnEhv-88">
          <mxGeometry y="30" width="232" height="30" as="geometry" />
        </mxCell>
        <mxCell id="L4J4VgGYrzyUZLDxnEhv-90" value="PK" style="shape=partialRectangle;connectable=0;fillColor=none;top=0;left=0;bottom=0;right=0;fontStyle=1;overflow=hidden;html=1;whiteSpace=wrap;" vertex="1" parent="L4J4VgGYrzyUZLDxnEhv-89">
          <mxGeometry width="60" height="30" as="geometry">
            <mxRectangle width="60" height="30" as="alternateBounds" />
          </mxGeometry>
        </mxCell>
        <mxCell id="L4J4VgGYrzyUZLDxnEhv-91" value="id -&amp;nbsp; string char 5" style="shape=partialRectangle;connectable=0;fillColor=none;top=0;left=0;bottom=0;right=0;align=left;spacingLeft=6;fontStyle=5;overflow=hidden;html=1;whiteSpace=wrap;" vertex="1" parent="L4J4VgGYrzyUZLDxnEhv-89">
          <mxGeometry x="60" width="172" height="30" as="geometry">
            <mxRectangle width="172" height="30" as="alternateBounds" />
          </mxGeometry>
        </mxCell>
        <mxCell id="L4J4VgGYrzyUZLDxnEhv-92" value="" style="shape=tableRow;horizontal=0;startSize=0;swimlaneHead=0;swimlaneBody=0;fillColor=none;collapsible=0;dropTarget=0;points=[[0,0.5],[1,0.5]];portConstraint=eastwest;top=0;left=0;right=0;bottom=0;html=1;" vertex="1" parent="L4J4VgGYrzyUZLDxnEhv-88">
          <mxGeometry y="60" width="232" height="30" as="geometry" />
        </mxCell>
        <mxCell id="L4J4VgGYrzyUZLDxnEhv-93" value="" style="shape=partialRectangle;connectable=0;fillColor=none;top=0;left=0;bottom=0;right=0;editable=1;overflow=hidden;html=1;whiteSpace=wrap;" vertex="1" parent="L4J4VgGYrzyUZLDxnEhv-92">
          <mxGeometry width="60" height="30" as="geometry">
            <mxRectangle width="60" height="30" as="alternateBounds" />
          </mxGeometry>
        </mxCell>
        <mxCell id="L4J4VgGYrzyUZLDxnEhv-94" value="descricao" style="shape=partialRectangle;connectable=0;fillColor=none;top=0;left=0;bottom=0;right=0;align=left;spacingLeft=6;overflow=hidden;html=1;whiteSpace=wrap;" vertex="1" parent="L4J4VgGYrzyUZLDxnEhv-92">
          <mxGeometry x="60" width="172" height="30" as="geometry">
            <mxRectangle width="172" height="30" as="alternateBounds" />
          </mxGeometry>
        </mxCell>
        <mxCell id="L4J4VgGYrzyUZLDxnEhv-95" value="" style="shape=tableRow;horizontal=0;startSize=0;swimlaneHead=0;swimlaneBody=0;fillColor=none;collapsible=0;dropTarget=0;points=[[0,0.5],[1,0.5]];portConstraint=eastwest;top=0;left=0;right=0;bottom=0;html=1;" vertex="1" parent="L4J4VgGYrzyUZLDxnEhv-88">
          <mxGeometry y="90" width="232" height="30" as="geometry" />
        </mxCell>
        <mxCell id="L4J4VgGYrzyUZLDxnEhv-96" value="" style="shape=partialRectangle;connectable=0;fillColor=none;top=0;left=0;bottom=0;right=0;editable=1;overflow=hidden;html=1;whiteSpace=wrap;" vertex="1" parent="L4J4VgGYrzyUZLDxnEhv-95">
          <mxGeometry width="60" height="30" as="geometry">
            <mxRectangle width="60" height="30" as="alternateBounds" />
          </mxGeometry>
        </mxCell>
        <mxCell id="L4J4VgGYrzyUZLDxnEhv-97" value="" style="shape=partialRectangle;connectable=0;fillColor=none;top=0;left=0;bottom=0;right=0;align=left;spacingLeft=6;overflow=hidden;html=1;whiteSpace=wrap;" vertex="1" parent="L4J4VgGYrzyUZLDxnEhv-95">
          <mxGeometry x="60" width="172" height="30" as="geometry">
            <mxRectangle width="172" height="30" as="alternateBounds" />
          </mxGeometry>
        </mxCell>
        <mxCell id="L4J4VgGYrzyUZLDxnEhv-98" style="shape=tableRow;horizontal=0;startSize=0;swimlaneHead=0;swimlaneBody=0;fillColor=none;collapsible=0;dropTarget=0;points=[[0,0.5],[1,0.5]];portConstraint=eastwest;top=0;left=0;right=0;bottom=0;html=1;" vertex="1" parent="L4J4VgGYrzyUZLDxnEhv-88">
          <mxGeometry y="120" width="232" height="30" as="geometry" />
        </mxCell>
        <mxCell id="L4J4VgGYrzyUZLDxnEhv-99" style="shape=partialRectangle;connectable=0;fillColor=none;top=0;left=0;bottom=0;right=0;editable=1;overflow=hidden;html=1;whiteSpace=wrap;" vertex="1" parent="L4J4VgGYrzyUZLDxnEhv-98">
          <mxGeometry width="60" height="30" as="geometry">
            <mxRectangle width="60" height="30" as="alternateBounds" />
          </mxGeometry>
        </mxCell>
        <mxCell id="L4J4VgGYrzyUZLDxnEhv-100" style="shape=partialRectangle;connectable=0;fillColor=none;top=0;left=0;bottom=0;right=0;align=left;spacingLeft=6;overflow=hidden;html=1;whiteSpace=wrap;" vertex="1" parent="L4J4VgGYrzyUZLDxnEhv-98">
          <mxGeometry x="60" width="172" height="30" as="geometry">
            <mxRectangle width="172" height="30" as="alternateBounds" />
          </mxGeometry>
        </mxCell>
        <mxCell id="L4J4VgGYrzyUZLDxnEhv-101" style="edgeStyle=orthogonalEdgeStyle;rounded=0;orthogonalLoop=1;jettySize=auto;html=1;startArrow=ERmany;startFill=0;exitX=1.012;exitY=0.167;exitDx=0;exitDy=0;exitPerimeter=0;entryX=-0.003;entryY=0.694;entryDx=0;entryDy=0;entryPerimeter=0;" edge="1" parent="1" source="L4J4VgGYrzyUZLDxnEhv-49" target="L4J4VgGYrzyUZLDxnEhv-59">
          <mxGeometry relative="1" as="geometry">
            <mxPoint x="-64" y="21" as="sourcePoint" />
            <mxPoint x="65" y="22" as="targetPoint" />
          </mxGeometry>
        </mxCell>
        <mxCell id="L4J4VgGYrzyUZLDxnEhv-102" value="pertence" style="edgeLabel;html=1;align=center;verticalAlign=middle;resizable=0;points=[];" connectable="0" vertex="1" parent="L4J4VgGYrzyUZLDxnEhv-101">
          <mxGeometry x="-0.7686" y="1" relative="1" as="geometry">
            <mxPoint x="37" y="-11" as="offset" />
          </mxGeometry>
        </mxCell>
        <mxCell id="L4J4VgGYrzyUZLDxnEhv-103" value="pertence" style="text;html=1;align=center;verticalAlign=middle;resizable=0;points=[];autosize=1;strokeColor=none;fillColor=none;" vertex="1" parent="1">
          <mxGeometry x="-609" y="331" width="65" height="26" as="geometry" />
        </mxCell>
        <mxCell id="L4J4VgGYrzyUZLDxnEhv-104" style="edgeStyle=orthogonalEdgeStyle;rounded=0;orthogonalLoop=1;jettySize=auto;html=1;startArrow=ERmany;startFill=0;exitX=1.012;exitY=0.167;exitDx=0;exitDy=0;exitPerimeter=0;endArrow=ERone;endFill=0;" edge="1" parent="1">
          <mxGeometry relative="1" as="geometry">
            <mxPoint x="-21" y="401" as="sourcePoint" />
            <mxPoint x="67" y="402" as="targetPoint" />
          </mxGeometry>
        </mxCell>
        <mxCell id="L4J4VgGYrzyUZLDxnEhv-105" value="pertence" style="edgeLabel;html=1;align=center;verticalAlign=middle;resizable=0;points=[];" connectable="0" vertex="1" parent="L4J4VgGYrzyUZLDxnEhv-104">
          <mxGeometry x="-0.7686" y="1" relative="1" as="geometry">
            <mxPoint x="37" y="-11" as="offset" />
          </mxGeometry>
        </mxCell>
        <mxCell id="L4J4VgGYrzyUZLDxnEhv-106" style="edgeStyle=orthogonalEdgeStyle;rounded=0;orthogonalLoop=1;jettySize=auto;html=1;startArrow=ERone;startFill=0;exitX=0.5;exitY=1;exitDx=0;exitDy=0;endArrow=none;endFill=0;" edge="1" parent="1" source="L4J4VgGYrzyUZLDxnEhv-55" target="L4J4VgGYrzyUZLDxnEhv-75">
          <mxGeometry relative="1" as="geometry">
            <mxPoint x="145" y="253" as="sourcePoint" />
            <mxPoint x="233" y="254" as="targetPoint" />
            <Array as="points">
              <mxPoint x="174" y="246" />
              <mxPoint x="172" y="246" />
            </Array>
          </mxGeometry>
        </mxCell>
        <mxCell id="L4J4VgGYrzyUZLDxnEhv-107" value="pertence" style="edgeLabel;html=1;align=center;verticalAlign=middle;resizable=0;points=[];" connectable="0" vertex="1" parent="L4J4VgGYrzyUZLDxnEhv-106">
          <mxGeometry x="-0.7686" y="1" relative="1" as="geometry">
            <mxPoint x="37" y="-11" as="offset" />
          </mxGeometry>
        </mxCell>
        <mxCell id="L4J4VgGYrzyUZLDxnEhv-108" value="Sobremesa ð°&amp;nbsp;" style="whiteSpace=wrap;html=1;align=center;" vertex="1" parent="1">
          <mxGeometry x="-299" y="106" width="106" height="23" as="geometry" />
        </mxCell>
        <mxCell id="L4J4VgGYrzyUZLDxnEhv-109" value="Lanches ð¥ª&amp;nbsp;" style="whiteSpace=wrap;html=1;align=center;" vertex="1" parent="1">
          <mxGeometry x="-298.5" y="133" width="105" height="22" as="geometry" />
        </mxCell>
        <mxCell id="L4J4VgGYrzyUZLDxnEhv-110" value="Acompanhamentoð&amp;nbsp;" style="whiteSpace=wrap;html=1;align=center;" vertex="1" parent="1">
          <mxGeometry x="-187" y="133" width="120" height="22" as="geometry" />
        </mxCell>
        <mxCell id="L4J4VgGYrzyUZLDxnEhv-111" value="Bebida ð¥¤" style="whiteSpace=wrap;html=1;align=center;" vertex="1" parent="1">
          <mxGeometry x="-187" y="106" width="120" height="22" as="geometry" />
        </mxCell>
        <mxCell id="L4J4VgGYrzyUZLDxnEhv-112" value="&lt;div&gt;CREATE TABLE cliente (&lt;/div&gt;&lt;div&gt;cpf CHAR(11) PRIMARY KEY,&lt;/div&gt;&lt;div&gt;nome VARCHAR(90) NOT NULL,&lt;/div&gt;&lt;div&gt;email VARCHAR(90)&amp;nbsp; NOT NULL);&lt;/div&gt;" style="text;html=1;strokeColor=none;fillColor=none;align=left;verticalAlign=middle;whiteSpace=wrap;rounded=0;" vertex="1" parent="1">
          <mxGeometry x="-1064" y="298" width="198" height="81" as="geometry" />
        </mxCell>
        <mxCell id="L4J4VgGYrzyUZLDxnEhv-113" value="&lt;div&gt;CREATE TABLE produtos (&lt;/div&gt;&lt;div&gt;id_produto SERIAL PRIMARY KEY,&amp;nbsp;&lt;/div&gt;&lt;div&gt;nome CHAR(80) NOT NULL,&lt;/div&gt;&lt;div&gt;descricao CHAR(127),&lt;/div&gt;&lt;div&gt;preco DECIMAL(10, 2) NOT NULL,&lt;/div&gt;&lt;div&gt;url_imagem VARCHAR(255),&lt;/div&gt;&lt;div&gt;id_categoria CHAR(36));&lt;/div&gt;" style="text;html=1;strokeColor=none;fillColor=none;align=left;verticalAlign=middle;whiteSpace=wrap;rounded=0;" vertex="1" parent="1">
          <mxGeometry x="309" y="-51" width="226" height="125" as="geometry" />
        </mxCell>
        <mxCell id="L4J4VgGYrzyUZLDxnEhv-114" value="Sorvete ð¨&amp;nbsp;" style="whiteSpace=wrap;html=1;align=center;" vertex="1" parent="1">
          <mxGeometry x="39" y="166" width="127" height="22" as="geometry" />
        </mxCell>
        <mxCell id="L4J4VgGYrzyUZLDxnEhv-115" value="&lt;div&gt;CREATE TABLE categorias_produto (&lt;/div&gt;&lt;div&gt;id_categoria CHAR(5) PRIMARY KEY,&lt;/div&gt;&lt;div&gt;nome VARCHAR(90) NOT NULL UNIQUE,&lt;/div&gt;&lt;div&gt;descricao VARCHAR(127));&lt;/div&gt;" style="text;html=1;strokeColor=none;fillColor=none;align=left;verticalAlign=middle;whiteSpace=wrap;rounded=0;" vertex="1" parent="1">
          <mxGeometry x="-569" y="-24" width="259" height="87" as="geometry" />
        </mxCell>
        <mxCell id="L4J4VgGYrzyUZLDxnEhv-116" value="cachorro- quenteð­&amp;nbsp;&amp;nbsp;" style="whiteSpace=wrap;html=1;align=center;" vertex="1" parent="1">
          <mxGeometry x="39" y="191" width="127" height="22" as="geometry" />
        </mxCell>
        <mxCell id="L4J4VgGYrzyUZLDxnEhv-117" value="suco de laranja&amp;nbsp;" style="whiteSpace=wrap;html=1;align=center;" vertex="1" parent="1">
          <mxGeometry x="39" y="218" width="127" height="22" as="geometry" />
        </mxCell>
        <mxCell id="L4J4VgGYrzyUZLDxnEhv-118" value="CREATE TABLE pedido (&lt;br&gt;id_pedido CHAR(36) PRIMARY KEY,&lt;br&gt;senha CHAR(3) NOT NULL,&lt;br&gt;id_status CHAR(8),&lt;br&gt;cpf CHAR(11) references clientes(cpf),&lt;br&gt;detalhes_pedido VARCHAR(255),&lt;br&gt;valor_total DECIMAL(10,2) NOT NULL,&lt;br&gt;FOREIGN KEY (id_status) REFERENCES status(id_status));" style="text;html=1;strokeColor=none;fillColor=none;align=left;verticalAlign=middle;whiteSpace=wrap;rounded=0;" vertex="1" parent="1">
          <mxGeometry x="-536" y="202" width="237.5" height="143" as="geometry" />
        </mxCell>
        <mxCell id="L4J4VgGYrzyUZLDxnEhv-119" value="hanburger ð&amp;nbsp;" style="whiteSpace=wrap;html=1;align=center;" vertex="1" parent="1">
          <mxGeometry x="39" y="244" width="127" height="22" as="geometry" />
        </mxCell>
        <mxCell id="L4J4VgGYrzyUZLDxnEhv-120" value="CREATE TABLE itens_pedido (&lt;br&gt;id_item_pedido CHAR(36) PRIMARY KEY,&lt;br&gt;id_produto CHAR(36) REFERENCES produtos" style="text;html=1;strokeColor=none;fillColor=none;align=left;verticalAlign=middle;whiteSpace=wrap;rounded=0;" vertex="1" parent="1">
          <mxGeometry x="315" y="331" width="249" height="74.5" as="geometry" />
        </mxCell>
        <mxCell id="L4J4VgGYrzyUZLDxnEhv-121" value="JoÃ£o Paulo ð¨" style="whiteSpace=wrap;html=1;align=center;" vertex="1" parent="1">
          <mxGeometry x="-815" y="430" width="105" height="22" as="geometry" />
        </mxCell>
        <mxCell id="L4J4VgGYrzyUZLDxnEhv-122" value="Recebido&amp;nbsp;ðµ" style="whiteSpace=wrap;html=1;align=center;" vertex="1" parent="1">
          <mxGeometry x="-279" y="849" width="105" height="22" as="geometry" />
        </mxCell>
        <mxCell id="L4J4VgGYrzyUZLDxnEhv-123" value="Em preparo&amp;nbsp;ð¡" style="whiteSpace=wrap;html=1;align=center;" vertex="1" parent="1">
          <mxGeometry x="-167" y="849" width="104" height="22" as="geometry" />
        </mxCell>
        <mxCell id="L4J4VgGYrzyUZLDxnEhv-124" value="Pronto&amp;nbsp;ð¢" style="whiteSpace=wrap;html=1;align=center;" vertex="1" parent="1">
          <mxGeometry x="-279" y="876" width="105" height="22" as="geometry" />
        </mxCell>
        <mxCell id="L4J4VgGYrzyUZLDxnEhv-125" value="Finalizado&amp;nbsp;ð£" style="whiteSpace=wrap;html=1;align=center;" vertex="1" parent="1">
          <mxGeometry x="-167" y="876" width="104" height="22" as="geometry" />
        </mxCell>
        <mxCell id="L4J4VgGYrzyUZLDxnEhv-126" value="Pagamento" style="shape=table;startSize=30;container=1;collapsible=1;childLayout=tableLayout;fixedRows=1;rowLines=0;fontStyle=1;align=center;resizeLast=1;html=1;whiteSpace=wrap;fillColor=#dae8fc;strokeColor=#6c8ebf;" vertex="1" parent="1">
          <mxGeometry x="141" y="569" width="278" height="122" as="geometry" />
        </mxCell>
        <mxCell id="L4J4VgGYrzyUZLDxnEhv-127" value="" style="shape=tableRow;horizontal=0;startSize=0;swimlaneHead=0;swimlaneBody=0;fillColor=none;collapsible=0;dropTarget=0;points=[[0,0.5],[1,0.5]];portConstraint=eastwest;top=0;left=0;right=0;bottom=0;html=1;" vertex="1" parent="L4J4VgGYrzyUZLDxnEhv-126">
          <mxGeometry y="30" width="278" height="30" as="geometry" />
        </mxCell>
        <mxCell id="L4J4VgGYrzyUZLDxnEhv-128" value="PK" style="shape=partialRectangle;connectable=0;fillColor=none;top=0;left=0;bottom=0;right=0;fontStyle=1;overflow=hidden;html=1;whiteSpace=wrap;" vertex="1" parent="L4J4VgGYrzyUZLDxnEhv-127">
          <mxGeometry width="62.619237263997476" height="30" as="geometry">
            <mxRectangle width="62.619237263997476" height="30" as="alternateBounds" />
          </mxGeometry>
        </mxCell>
        <mxCell id="L4J4VgGYrzyUZLDxnEhv-129" value="id -&amp;nbsp; string char 36" style="shape=partialRectangle;connectable=0;fillColor=none;top=0;left=0;bottom=0;right=0;align=left;spacingLeft=6;fontStyle=5;overflow=hidden;html=1;whiteSpace=wrap;" vertex="1" parent="L4J4VgGYrzyUZLDxnEhv-127">
          <mxGeometry x="62.619237263997476" width="215.3807627360025" height="30" as="geometry">
            <mxRectangle width="215.3807627360025" height="30" as="alternateBounds" />
          </mxGeometry>
        </mxCell>
        <mxCell id="L4J4VgGYrzyUZLDxnEhv-130" value="" style="shape=tableRow;horizontal=0;startSize=0;swimlaneHead=0;swimlaneBody=0;fillColor=none;collapsible=0;dropTarget=0;points=[[0,0.5],[1,0.5]];portConstraint=eastwest;top=0;left=0;right=0;bottom=0;html=1;" vertex="1" parent="L4J4VgGYrzyUZLDxnEhv-126">
          <mxGeometry y="60" width="278" height="32" as="geometry" />
        </mxCell>
        <mxCell id="L4J4VgGYrzyUZLDxnEhv-131" value="" style="shape=partialRectangle;connectable=0;fillColor=none;top=0;left=0;bottom=0;right=0;editable=1;overflow=hidden;html=1;whiteSpace=wrap;" vertex="1" parent="L4J4VgGYrzyUZLDxnEhv-130">
          <mxGeometry width="62.619237263997476" height="32" as="geometry">
            <mxRectangle width="62.619237263997476" height="32" as="alternateBounds" />
          </mxGeometry>
        </mxCell>
        <mxCell id="L4J4VgGYrzyUZLDxnEhv-132" value="nome_pagamento" style="shape=partialRectangle;connectable=0;fillColor=none;top=0;left=0;bottom=0;right=0;align=left;spacingLeft=6;overflow=hidden;html=1;whiteSpace=wrap;" vertex="1" parent="L4J4VgGYrzyUZLDxnEhv-130">
          <mxGeometry x="62.619237263997476" width="215.3807627360025" height="32" as="geometry">
            <mxRectangle width="215.3807627360025" height="32" as="alternateBounds" />
          </mxGeometry>
        </mxCell>
        <mxCell id="L4J4VgGYrzyUZLDxnEhv-133" value="" style="shape=tableRow;horizontal=0;startSize=0;swimlaneHead=0;swimlaneBody=0;fillColor=none;collapsible=0;dropTarget=0;points=[[0,0.5],[1,0.5]];portConstraint=eastwest;top=0;left=0;right=0;bottom=0;html=1;" vertex="1" parent="L4J4VgGYrzyUZLDxnEhv-126">
          <mxGeometry y="92" width="278" height="30" as="geometry" />
        </mxCell>
        <mxCell id="L4J4VgGYrzyUZLDxnEhv-134" value="" style="shape=partialRectangle;connectable=0;fillColor=none;top=0;left=0;bottom=0;right=0;editable=1;overflow=hidden;html=1;whiteSpace=wrap;" vertex="1" parent="L4J4VgGYrzyUZLDxnEhv-133">
          <mxGeometry width="62.619237263997476" height="30" as="geometry">
            <mxRectangle width="62.619237263997476" height="30" as="alternateBounds" />
          </mxGeometry>
        </mxCell>
        <mxCell id="L4J4VgGYrzyUZLDxnEhv-135" value="" style="shape=partialRectangle;connectable=0;fillColor=none;top=0;left=0;bottom=0;right=0;align=left;spacingLeft=6;overflow=hidden;html=1;whiteSpace=wrap;" vertex="1" parent="L4J4VgGYrzyUZLDxnEhv-133">
          <mxGeometry x="62.619237263997476" width="215.3807627360025" height="30" as="geometry">
            <mxRectangle width="215.3807627360025" height="30" as="alternateBounds" />
          </mxGeometry>
        </mxCell>
        <mxCell id="L4J4VgGYrzyUZLDxnEhv-136" value="Debito" style="whiteSpace=wrap;html=1;align=center;" vertex="1" parent="1">
          <mxGeometry x="433" y="610" width="105" height="22" as="geometry" />
        </mxCell>
        <mxCell id="L4J4VgGYrzyUZLDxnEhv-137" value="Credito" style="whiteSpace=wrap;html=1;align=center;" vertex="1" parent="1">
          <mxGeometry x="433" y="637" width="105" height="22" as="geometry" />
        </mxCell>
        <mxCell id="L4J4VgGYrzyUZLDxnEhv-138" value="Pix" style="whiteSpace=wrap;html=1;align=center;" vertex="1" parent="1">
          <mxGeometry x="433" y="664" width="105" height="22" as="geometry" />
        </mxCell>
        <mxCell id="L4J4VgGYrzyUZLDxnEhv-139" value="" style="shape=table;startSize=0;container=1;collapsible=0;childLayout=tableLayout;fontSize=16;" vertex="1" parent="1">
          <mxGeometry x="-511" y="461" width="203" height="89" as="geometry" />
        </mxCell>
        <mxCell id="L4J4VgGYrzyUZLDxnEhv-140" value="" style="shape=tableRow;horizontal=0;startSize=0;swimlaneHead=0;swimlaneBody=0;strokeColor=inherit;top=0;left=0;bottom=0;right=0;collapsible=0;dropTarget=0;fillColor=none;points=[[0,0.5],[1,0.5]];portConstraint=eastwest;fontSize=16;" vertex="1" parent="L4J4VgGYrzyUZLDxnEhv-139">
          <mxGeometry width="203" height="30" as="geometry" />
        </mxCell>
        <mxCell id="L4J4VgGYrzyUZLDxnEhv-141" value="1x" style="shape=partialRectangle;html=1;whiteSpace=wrap;connectable=0;strokeColor=inherit;overflow=hidden;fillColor=none;top=0;left=0;bottom=0;right=0;pointerEvents=1;fontSize=16;" vertex="1" parent="L4J4VgGYrzyUZLDxnEhv-140">
          <mxGeometry width="43" height="30" as="geometry">
            <mxRectangle width="43" height="30" as="alternateBounds" />
          </mxGeometry>
        </mxCell>
        <mxCell id="L4J4VgGYrzyUZLDxnEhv-142" value="hamburger&amp;nbsp;ð" style="shape=partialRectangle;html=1;whiteSpace=wrap;connectable=0;strokeColor=inherit;overflow=hidden;fillColor=none;top=0;left=0;bottom=0;right=0;pointerEvents=1;fontSize=16;align=left;" vertex="1" parent="L4J4VgGYrzyUZLDxnEhv-140">
          <mxGeometry x="43" width="160" height="30" as="geometry">
            <mxRectangle width="160" height="30" as="alternateBounds" />
          </mxGeometry>
        </mxCell>
        <mxCell id="L4J4VgGYrzyUZLDxnEhv-143" value="" style="shape=tableRow;horizontal=0;startSize=0;swimlaneHead=0;swimlaneBody=0;strokeColor=inherit;top=0;left=0;bottom=0;right=0;collapsible=0;dropTarget=0;fillColor=none;points=[[0,0.5],[1,0.5]];portConstraint=eastwest;fontSize=16;align=left;" vertex="1" parent="L4J4VgGYrzyUZLDxnEhv-139">
          <mxGeometry y="30" width="203" height="29" as="geometry" />
        </mxCell>
        <mxCell id="L4J4VgGYrzyUZLDxnEhv-144" value="2x" style="shape=partialRectangle;html=1;whiteSpace=wrap;connectable=0;strokeColor=inherit;overflow=hidden;fillColor=none;top=0;left=0;bottom=0;right=0;pointerEvents=1;fontSize=16;" vertex="1" parent="L4J4VgGYrzyUZLDxnEhv-143">
          <mxGeometry width="43" height="29" as="geometry">
            <mxRectangle width="43" height="29" as="alternateBounds" />
          </mxGeometry>
        </mxCell>
        <mxCell id="L4J4VgGYrzyUZLDxnEhv-145" value="coca-cola&amp;nbsp;ð¥¤" style="shape=partialRectangle;html=1;whiteSpace=wrap;connectable=0;strokeColor=inherit;overflow=hidden;fillColor=none;top=0;left=0;bottom=0;right=0;pointerEvents=1;fontSize=16;align=left;" vertex="1" parent="L4J4VgGYrzyUZLDxnEhv-143">
          <mxGeometry x="43" width="160" height="29" as="geometry">
            <mxRectangle width="160" height="29" as="alternateBounds" />
          </mxGeometry>
        </mxCell>
        <mxCell id="L4J4VgGYrzyUZLDxnEhv-146" value="" style="shape=tableRow;horizontal=0;startSize=0;swimlaneHead=0;swimlaneBody=0;strokeColor=inherit;top=0;left=0;bottom=0;right=0;collapsible=0;dropTarget=0;fillColor=none;points=[[0,0.5],[1,0.5]];portConstraint=eastwest;fontSize=16;" vertex="1" parent="L4J4VgGYrzyUZLDxnEhv-139">
          <mxGeometry y="59" width="203" height="30" as="geometry" />
        </mxCell>
        <mxCell id="L4J4VgGYrzyUZLDxnEhv-147" value="1x" style="shape=partialRectangle;html=1;whiteSpace=wrap;connectable=0;strokeColor=inherit;overflow=hidden;fillColor=none;top=0;left=0;bottom=0;right=0;pointerEvents=1;fontSize=16;" vertex="1" parent="L4J4VgGYrzyUZLDxnEhv-146">
          <mxGeometry width="43" height="30" as="geometry">
            <mxRectangle width="43" height="30" as="alternateBounds" />
          </mxGeometry>
        </mxCell>
        <mxCell id="L4J4VgGYrzyUZLDxnEhv-148" value="batata frita&amp;nbsp;ð" style="shape=partialRectangle;html=1;whiteSpace=wrap;connectable=0;strokeColor=inherit;overflow=hidden;fillColor=none;top=0;left=0;bottom=0;right=0;pointerEvents=1;fontSize=16;align=left;" vertex="1" parent="L4J4VgGYrzyUZLDxnEhv-146">
          <mxGeometry x="43" width="160" height="30" as="geometry">
            <mxRectangle width="160" height="30" as="alternateBounds" />
          </mxGeometry>
        </mxCell>
        <mxCell id="L4J4VgGYrzyUZLDxnEhv-149" style="edgeStyle=orthogonalEdgeStyle;rounded=0;orthogonalLoop=1;jettySize=auto;html=1;entryX=0;entryY=0.5;entryDx=0;entryDy=0;" edge="1" parent="1" source="L4J4VgGYrzyUZLDxnEhv-150" target="L4J4VgGYrzyUZLDxnEhv-42">
          <mxGeometry relative="1" as="geometry" />
        </mxCell>
        <mxCell id="L4J4VgGYrzyUZLDxnEhv-150" value="HistÃ³rico&amp;nbsp;" style="shape=table;startSize=30;container=1;collapsible=1;childLayout=tableLayout;fixedRows=1;rowLines=0;fontStyle=1;align=center;resizeLast=1;html=1;whiteSpace=wrap;fillColor=#dae8fc;strokeColor=#6c8ebf;" vertex="1" parent="1">
          <mxGeometry x="-728" y="630" width="278" height="176" as="geometry">
            <mxRectangle x="-299" y="253" width="75" height="30" as="alternateBounds" />
          </mxGeometry>
        </mxCell>
        <mxCell id="L4J4VgGYrzyUZLDxnEhv-151" value="" style="shape=tableRow;horizontal=0;startSize=0;swimlaneHead=0;swimlaneBody=0;fillColor=none;collapsible=0;dropTarget=0;points=[[0,0.5],[1,0.5]];portConstraint=eastwest;top=0;left=0;right=0;bottom=0;html=1;" vertex="1" parent="L4J4VgGYrzyUZLDxnEhv-150">
          <mxGeometry y="30" width="278" height="30" as="geometry" />
        </mxCell>
        <mxCell id="L4J4VgGYrzyUZLDxnEhv-152" value="PK" style="shape=partialRectangle;connectable=0;fillColor=none;top=0;left=0;bottom=0;right=0;fontStyle=1;overflow=hidden;html=1;whiteSpace=wrap;" vertex="1" parent="L4J4VgGYrzyUZLDxnEhv-151">
          <mxGeometry width="62.619237263997476" height="30" as="geometry">
            <mxRectangle width="62.619237263997476" height="30" as="alternateBounds" />
          </mxGeometry>
        </mxCell>
        <mxCell id="L4J4VgGYrzyUZLDxnEhv-153" value="id -&amp;nbsp; string char 36" style="shape=partialRectangle;connectable=0;fillColor=none;top=0;left=0;bottom=0;right=0;align=left;spacingLeft=6;fontStyle=5;overflow=hidden;html=1;whiteSpace=wrap;" vertex="1" parent="L4J4VgGYrzyUZLDxnEhv-151">
          <mxGeometry x="62.619237263997476" width="215.3807627360025" height="30" as="geometry">
            <mxRectangle width="215.3807627360025" height="30" as="alternateBounds" />
          </mxGeometry>
        </mxCell>
        <mxCell id="L4J4VgGYrzyUZLDxnEhv-154" value="" style="shape=tableRow;horizontal=0;startSize=0;swimlaneHead=0;swimlaneBody=0;fillColor=none;collapsible=0;dropTarget=0;points=[[0,0.5],[1,0.5]];portConstraint=eastwest;top=0;left=0;right=0;bottom=0;html=1;" vertex="1" parent="L4J4VgGYrzyUZLDxnEhv-150">
          <mxGeometry y="60" width="278" height="30" as="geometry" />
        </mxCell>
        <mxCell id="L4J4VgGYrzyUZLDxnEhv-155" value="FK" style="shape=partialRectangle;connectable=0;fillColor=none;top=0;left=0;bottom=0;right=0;editable=1;overflow=hidden;html=1;whiteSpace=wrap;" vertex="1" parent="L4J4VgGYrzyUZLDxnEhv-154">
          <mxGeometry width="62.619237263997476" height="30" as="geometry">
            <mxRectangle width="62.619237263997476" height="30" as="alternateBounds" />
          </mxGeometry>
        </mxCell>
        <mxCell id="L4J4VgGYrzyUZLDxnEhv-156" value="id_pedido" style="shape=partialRectangle;connectable=0;fillColor=none;top=0;left=0;bottom=0;right=0;align=left;spacingLeft=6;overflow=hidden;html=1;whiteSpace=wrap;" vertex="1" parent="L4J4VgGYrzyUZLDxnEhv-154">
          <mxGeometry x="62.619237263997476" width="215.3807627360025" height="30" as="geometry">
            <mxRectangle width="215.3807627360025" height="30" as="alternateBounds" />
          </mxGeometry>
        </mxCell>
        <mxCell id="L4J4VgGYrzyUZLDxnEhv-157" value="" style="shape=tableRow;horizontal=0;startSize=0;swimlaneHead=0;swimlaneBody=0;fillColor=none;collapsible=0;dropTarget=0;points=[[0,0.5],[1,0.5]];portConstraint=eastwest;top=0;left=0;right=0;bottom=0;html=1;" vertex="1" parent="L4J4VgGYrzyUZLDxnEhv-150">
          <mxGeometry y="90" width="278" height="26" as="geometry" />
        </mxCell>
        <mxCell id="L4J4VgGYrzyUZLDxnEhv-158" value="FK" style="shape=partialRectangle;connectable=0;fillColor=none;top=0;left=0;bottom=0;right=0;editable=1;overflow=hidden;html=1;whiteSpace=wrap;" vertex="1" parent="L4J4VgGYrzyUZLDxnEhv-157">
          <mxGeometry width="62.619237263997476" height="26" as="geometry">
            <mxRectangle width="62.619237263997476" height="26" as="alternateBounds" />
          </mxGeometry>
        </mxCell>
        <mxCell id="L4J4VgGYrzyUZLDxnEhv-159" value="status" style="shape=partialRectangle;connectable=0;fillColor=none;top=0;left=0;bottom=0;right=0;align=left;spacingLeft=6;overflow=hidden;html=1;whiteSpace=wrap;" vertex="1" parent="L4J4VgGYrzyUZLDxnEhv-157">
          <mxGeometry x="62.619237263997476" width="215.3807627360025" height="26" as="geometry">
            <mxRectangle width="215.3807627360025" height="26" as="alternateBounds" />
          </mxGeometry>
        </mxCell>
        <mxCell id="L4J4VgGYrzyUZLDxnEhv-160" style="shape=tableRow;horizontal=0;startSize=0;swimlaneHead=0;swimlaneBody=0;fillColor=none;collapsible=0;dropTarget=0;points=[[0,0.5],[1,0.5]];portConstraint=eastwest;top=0;left=0;right=0;bottom=0;html=1;" vertex="1" parent="L4J4VgGYrzyUZLDxnEhv-150">
          <mxGeometry y="116" width="278" height="30" as="geometry" />
        </mxCell>
        <mxCell id="L4J4VgGYrzyUZLDxnEhv-161" value="" style="shape=partialRectangle;connectable=0;fillColor=none;top=0;left=0;bottom=0;right=0;editable=1;overflow=hidden;html=1;whiteSpace=wrap;" vertex="1" parent="L4J4VgGYrzyUZLDxnEhv-160">
          <mxGeometry width="62.619237263997476" height="30" as="geometry">
            <mxRectangle width="62.619237263997476" height="30" as="alternateBounds" />
          </mxGeometry>
        </mxCell>
        <mxCell id="L4J4VgGYrzyUZLDxnEhv-162" value="data_hora" style="shape=partialRectangle;connectable=0;fillColor=none;top=0;left=0;bottom=0;right=0;align=left;spacingLeft=6;overflow=hidden;html=1;whiteSpace=wrap;" vertex="1" parent="L4J4VgGYrzyUZLDxnEhv-160">
          <mxGeometry x="62.619237263997476" width="215.3807627360025" height="30" as="geometry">
            <mxRectangle width="215.3807627360025" height="30" as="alternateBounds" />
          </mxGeometry>
        </mxCell>
        <mxCell id="L4J4VgGYrzyUZLDxnEhv-163" style="shape=tableRow;horizontal=0;startSize=0;swimlaneHead=0;swimlaneBody=0;fillColor=none;collapsible=0;dropTarget=0;points=[[0,0.5],[1,0.5]];portConstraint=eastwest;top=0;left=0;right=0;bottom=0;html=1;" vertex="1" parent="L4J4VgGYrzyUZLDxnEhv-150">
          <mxGeometry y="146" width="278" height="30" as="geometry" />
        </mxCell>
        <mxCell id="L4J4VgGYrzyUZLDxnEhv-164" style="shape=partialRectangle;connectable=0;fillColor=none;top=0;left=0;bottom=0;right=0;editable=1;overflow=hidden;html=1;whiteSpace=wrap;" vertex="1" parent="L4J4VgGYrzyUZLDxnEhv-163">
          <mxGeometry width="62.619237263997476" height="30" as="geometry">
            <mxRectangle width="62.619237263997476" height="30" as="alternateBounds" />
          </mxGeometry>
        </mxCell>
        <mxCell id="L4J4VgGYrzyUZLDxnEhv-165" value="" style="shape=partialRectangle;connectable=0;fillColor=none;top=0;left=0;bottom=0;right=0;align=left;spacingLeft=6;overflow=hidden;html=1;whiteSpace=wrap;" vertex="1" parent="L4J4VgGYrzyUZLDxnEhv-163">
          <mxGeometry x="62.619237263997476" width="215.3807627360025" height="30" as="geometry">
            <mxRectangle width="215.3807627360025" height="30" as="alternateBounds" />
          </mxGeometry>
        </mxCell>
        <mxCell id="L4J4VgGYrzyUZLDxnEhv-166" value="Cancelado&amp;nbsp;ð´" style="whiteSpace=wrap;html=1;align=center;" vertex="1" parent="1">
          <mxGeometry x="-225.5" y="904" width="105" height="22" as="geometry" />
        </mxCell>
        <mxCell id="L4J4VgGYrzyUZLDxnEhv-167" style="edgeStyle=orthogonalEdgeStyle;rounded=0;orthogonalLoop=1;jettySize=auto;html=1;" edge="1" parent="1" source="L4J4VgGYrzyUZLDxnEhv-168" target="L4J4VgGYrzyUZLDxnEhv-42">
          <mxGeometry relative="1" as="geometry">
            <Array as="points">
              <mxPoint x="77" y="572" />
            </Array>
          </mxGeometry>
        </mxCell>
        <mxCell id="L4J4VgGYrzyUZLDxnEhv-168" value="SatisfaÃ§Ã£o&amp;nbsp;" style="shape=table;startSize=30;container=1;collapsible=1;childLayout=tableLayout;fixedRows=1;rowLines=0;fontStyle=1;align=center;resizeLast=1;html=1;whiteSpace=wrap;fillColor=#dae8fc;strokeColor=#6c8ebf;" vertex="1" parent="1">
          <mxGeometry x="39" y="732" width="278" height="90" as="geometry">
            <mxRectangle x="-299" y="253" width="75" height="30" as="alternateBounds" />
          </mxGeometry>
        </mxCell>
        <mxCell id="L4J4VgGYrzyUZLDxnEhv-169" value="" style="shape=tableRow;horizontal=0;startSize=0;swimlaneHead=0;swimlaneBody=0;fillColor=none;collapsible=0;dropTarget=0;points=[[0,0.5],[1,0.5]];portConstraint=eastwest;top=0;left=0;right=0;bottom=0;html=1;" vertex="1" parent="L4J4VgGYrzyUZLDxnEhv-168">
          <mxGeometry y="30" width="278" height="30" as="geometry" />
        </mxCell>
        <mxCell id="L4J4VgGYrzyUZLDxnEhv-170" value="PK" style="shape=partialRectangle;connectable=0;fillColor=none;top=0;left=0;bottom=0;right=0;fontStyle=1;overflow=hidden;html=1;whiteSpace=wrap;" vertex="1" parent="L4J4VgGYrzyUZLDxnEhv-169">
          <mxGeometry width="62.619237263997476" height="30" as="geometry">
            <mxRectangle width="62.619237263997476" height="30" as="alternateBounds" />
          </mxGeometry>
        </mxCell>
        <mxCell id="L4J4VgGYrzyUZLDxnEhv-171" value="id -&amp;nbsp; string char 36" style="shape=partialRectangle;connectable=0;fillColor=none;top=0;left=0;bottom=0;right=0;align=left;spacingLeft=6;fontStyle=5;overflow=hidden;html=1;whiteSpace=wrap;" vertex="1" parent="L4J4VgGYrzyUZLDxnEhv-169">
          <mxGeometry x="62.619237263997476" width="215.3807627360025" height="30" as="geometry">
            <mxRectangle width="215.3807627360025" height="30" as="alternateBounds" />
          </mxGeometry>
        </mxCell>
        <mxCell id="L4J4VgGYrzyUZLDxnEhv-172" value="" style="shape=tableRow;horizontal=0;startSize=0;swimlaneHead=0;swimlaneBody=0;fillColor=none;collapsible=0;dropTarget=0;points=[[0,0.5],[1,0.5]];portConstraint=eastwest;top=0;left=0;right=0;bottom=0;html=1;" vertex="1" parent="L4J4VgGYrzyUZLDxnEhv-168">
          <mxGeometry y="60" width="278" height="30" as="geometry" />
        </mxCell>
        <mxCell id="L4J4VgGYrzyUZLDxnEhv-173" value="" style="shape=partialRectangle;connectable=0;fillColor=none;top=0;left=0;bottom=0;right=0;editable=1;overflow=hidden;html=1;whiteSpace=wrap;" vertex="1" parent="L4J4VgGYrzyUZLDxnEhv-172">
          <mxGeometry width="62.619237263997476" height="30" as="geometry">
            <mxRectangle width="62.619237263997476" height="30" as="alternateBounds" />
          </mxGeometry>
        </mxCell>
        <mxCell id="L4J4VgGYrzyUZLDxnEhv-174" value="nome" style="shape=partialRectangle;connectable=0;fillColor=none;top=0;left=0;bottom=0;right=0;align=left;spacingLeft=6;overflow=hidden;html=1;whiteSpace=wrap;" vertex="1" parent="L4J4VgGYrzyUZLDxnEhv-172">
          <mxGeometry x="62.619237263997476" width="215.3807627360025" height="30" as="geometry">
            <mxRectangle width="215.3807627360025" height="30" as="alternateBounds" />
          </mxGeometry>
        </mxCell>
        <mxCell id="L4J4VgGYrzyUZLDxnEhv-175" value="Otimo&amp;nbsp;ð" style="whiteSpace=wrap;html=1;align=center;" vertex="1" parent="1">
          <mxGeometry x="340" y="742" width="105" height="22" as="geometry" />
        </mxCell>
        <mxCell id="L4J4VgGYrzyUZLDxnEhv-176" value="Bom&amp;nbsp;ð" style="whiteSpace=wrap;html=1;align=center;" vertex="1" parent="1">
          <mxGeometry x="340" y="769" width="105" height="22" as="geometry" />
        </mxCell>
        <mxCell id="L4J4VgGYrzyUZLDxnEhv-177" value="Regular&amp;nbsp;ð" style="whiteSpace=wrap;html=1;align=center;" vertex="1" parent="1">
          <mxGeometry x="340" y="796" width="105" height="22" as="geometry" />
        </mxCell>
        <mxCell id="L4J4VgGYrzyUZLDxnEhv-178" value="Ruim&amp;nbsp;ð" style="whiteSpace=wrap;html=1;align=center;" vertex="1" parent="1">
          <mxGeometry x="340" y="822" width="105" height="22" as="geometry" />
        </mxCell>
        <mxCell id="L4J4VgGYrzyUZLDxnEhv-179" value="PÃ©ssimo&amp;nbsp;ð¡" style="whiteSpace=wrap;html=1;align=center;" vertex="1" parent="1">
          <mxGeometry x="340" y="849" width="105" height="22" as="geometry" />
        </mxCell>
        <mxCell id="L4J4VgGYrzyUZLDxnEhv-180" style="edgeStyle=orthogonalEdgeStyle;rounded=0;orthogonalLoop=1;jettySize=auto;html=1;" edge="1" parent="1" source="L4J4VgGYrzyUZLDxnEhv-154">
          <mxGeometry relative="1" as="geometry">
            <mxPoint x="-292" y="704" as="targetPoint" />
          </mxGeometry>
        </mxCell>
        <mxCell id="L4J4VgGYrzyUZLDxnEhv-181" value="aberto ðµ" style="whiteSpace=wrap;html=1;align=center;" vertex="1" parent="1">
          <mxGeometry x="-279" y="822" width="105" height="22" as="geometry" />
        </mxCell>
        <mxCell id="L4J4VgGYrzyUZLDxnEhv-182" value="confirmado ðµ" style="whiteSpace=wrap;html=1;align=center;" vertex="1" parent="1">
          <mxGeometry x="-167" y="822" width="104" height="22" as="geometry" />
        </mxCell>
        <mxCell id="L4J4VgGYrzyUZLDxnEhv-183" value="Pagamento fetuado&amp;nbsp;ðµ" style="whiteSpace=wrap;html=1;align=center;fontSize=9;" vertex="1" parent="1">
          <mxGeometry x="-57" y="849" width="105" height="22" as="geometry" />
        </mxCell>
      </root>
    </mxGraphModel>
  </diagram>
</mxfile>
